<mxfile host="Electron" modified="2025-01-06T23:55:41.484Z" agent="Mozilla/5.0 (Windows NT 10.0; Win64; x64) AppleWebKit/537.36 (KHTML, like Gecko) draw.io/24.6.4 Chrome/124.0.6367.207 Electron/30.0.6 Safari/537.36" etag="KVfFuiUQ0j0A1b8pCNrd" version="24.6.4" type="device" pages="4">
  <diagram name="Main" id="xKO3rOzYl2tXMQn7w2Q7">
    <mxGraphModel dx="1932" dy="654" grid="1" gridSize="10" guides="1" tooltips="1" connect="1" arrows="1" fold="1" page="1" pageScale="1" pageWidth="827" pageHeight="1169" math="0" shadow="0">
      <root>
        <mxCell id="0" />
        <mxCell id="1" parent="0" />
        <mxCell id="D9keEGk7cFVkovoU4lrc-7" style="edgeStyle=orthogonalEdgeStyle;rounded=0;orthogonalLoop=1;jettySize=auto;html=1;entryX=0.5;entryY=0;entryDx=0;entryDy=0;fontSize=14;" edge="1" parent="1" source="D9keEGk7cFVkovoU4lrc-1" target="D9keEGk7cFVkovoU4lrc-2">
          <mxGeometry relative="1" as="geometry" />
        </mxCell>
        <mxCell id="D9keEGk7cFVkovoU4lrc-1" value="&lt;b style=&quot;font-size: 14px;&quot;&gt;START&lt;/b&gt;" style="strokeWidth=2;html=1;shape=mxgraph.flowchart.terminator;whiteSpace=wrap;fontSize=14;" vertex="1" parent="1">
          <mxGeometry x="360" y="300" width="100" height="60" as="geometry" />
        </mxCell>
        <mxCell id="D9keEGk7cFVkovoU4lrc-8" style="edgeStyle=orthogonalEdgeStyle;rounded=0;orthogonalLoop=1;jettySize=auto;html=1;entryX=0.5;entryY=0;entryDx=0;entryDy=0;fontSize=14;" edge="1" parent="1" source="D9keEGk7cFVkovoU4lrc-2" target="D9keEGk7cFVkovoU4lrc-3">
          <mxGeometry relative="1" as="geometry" />
        </mxCell>
        <mxCell id="D9keEGk7cFVkovoU4lrc-2" value="" style="verticalLabelPosition=bottom;verticalAlign=top;html=1;shape=process;whiteSpace=wrap;rounded=1;size=0.14;arcSize=6;strokeWidth=2;fontSize=14;" vertex="1" parent="1">
          <mxGeometry x="350" y="400" width="120" height="60" as="geometry" />
        </mxCell>
        <mxCell id="D9keEGk7cFVkovoU4lrc-11" value="" style="edgeStyle=orthogonalEdgeStyle;rounded=0;orthogonalLoop=1;jettySize=auto;html=1;fontSize=14;" edge="1" parent="1" source="D9keEGk7cFVkovoU4lrc-3" target="D9keEGk7cFVkovoU4lrc-10">
          <mxGeometry relative="1" as="geometry" />
        </mxCell>
        <mxCell id="D9keEGk7cFVkovoU4lrc-3" value="" style="verticalLabelPosition=bottom;verticalAlign=top;html=1;shape=process;whiteSpace=wrap;rounded=1;size=0.14;arcSize=6;strokeWidth=2;fontSize=14;" vertex="1" parent="1">
          <mxGeometry x="350" y="500" width="120" height="60" as="geometry" />
        </mxCell>
        <mxCell id="D9keEGk7cFVkovoU4lrc-5" value="&lt;b style=&quot;font-size: 14px;&quot;&gt;ESP-NOW&lt;/b&gt;&lt;div style=&quot;font-size: 14px;&quot;&gt;&lt;b style=&quot;font-size: 14px;&quot;&gt;setup&lt;/b&gt;&lt;/div&gt;" style="text;html=1;align=center;verticalAlign=middle;resizable=0;points=[];autosize=1;strokeColor=none;fillColor=none;fontSize=14;" vertex="1" parent="1">
          <mxGeometry x="365" y="405" width="90" height="50" as="geometry" />
        </mxCell>
        <mxCell id="D9keEGk7cFVkovoU4lrc-9" value="&lt;b style=&quot;font-size: 14px;&quot;&gt;Servo&lt;/b&gt;&lt;div style=&quot;font-size: 14px;&quot;&gt;&lt;b style=&quot;font-size: 14px;&quot;&gt;setup&lt;/b&gt;&lt;/div&gt;" style="text;html=1;align=center;verticalAlign=middle;resizable=0;points=[];autosize=1;strokeColor=none;fillColor=none;fontSize=14;" vertex="1" parent="1">
          <mxGeometry x="380" y="505" width="60" height="50" as="geometry" />
        </mxCell>
        <mxCell id="D9keEGk7cFVkovoU4lrc-24" style="edgeStyle=orthogonalEdgeStyle;rounded=0;orthogonalLoop=1;jettySize=auto;html=1;" edge="1" parent="1" source="D9keEGk7cFVkovoU4lrc-10" target="D9keEGk7cFVkovoU4lrc-18">
          <mxGeometry relative="1" as="geometry">
            <Array as="points">
              <mxPoint x="410" y="690" />
              <mxPoint x="60" y="690" />
            </Array>
          </mxGeometry>
        </mxCell>
        <mxCell id="D9keEGk7cFVkovoU4lrc-25" style="edgeStyle=orthogonalEdgeStyle;rounded=0;orthogonalLoop=1;jettySize=auto;html=1;entryX=0.5;entryY=0;entryDx=0;entryDy=0;" edge="1" parent="1" source="D9keEGk7cFVkovoU4lrc-10" target="D9keEGk7cFVkovoU4lrc-12">
          <mxGeometry relative="1" as="geometry">
            <Array as="points">
              <mxPoint x="410" y="690" />
              <mxPoint x="200" y="690" />
            </Array>
          </mxGeometry>
        </mxCell>
        <mxCell id="D9keEGk7cFVkovoU4lrc-26" style="edgeStyle=orthogonalEdgeStyle;rounded=0;orthogonalLoop=1;jettySize=auto;html=1;entryX=0.5;entryY=0;entryDx=0;entryDy=0;" edge="1" parent="1" source="D9keEGk7cFVkovoU4lrc-10" target="D9keEGk7cFVkovoU4lrc-14">
          <mxGeometry relative="1" as="geometry" />
        </mxCell>
        <mxCell id="D9keEGk7cFVkovoU4lrc-27" style="edgeStyle=orthogonalEdgeStyle;rounded=0;orthogonalLoop=1;jettySize=auto;html=1;entryX=0.5;entryY=0;entryDx=0;entryDy=0;" edge="1" parent="1" source="D9keEGk7cFVkovoU4lrc-10" target="D9keEGk7cFVkovoU4lrc-15">
          <mxGeometry relative="1" as="geometry" />
        </mxCell>
        <mxCell id="D9keEGk7cFVkovoU4lrc-28" style="edgeStyle=orthogonalEdgeStyle;rounded=0;orthogonalLoop=1;jettySize=auto;html=1;entryX=0.5;entryY=0;entryDx=0;entryDy=0;" edge="1" parent="1" source="D9keEGk7cFVkovoU4lrc-10" target="D9keEGk7cFVkovoU4lrc-16">
          <mxGeometry relative="1" as="geometry">
            <Array as="points">
              <mxPoint x="410" y="690" />
              <mxPoint x="620" y="690" />
            </Array>
          </mxGeometry>
        </mxCell>
        <mxCell id="D9keEGk7cFVkovoU4lrc-29" style="edgeStyle=orthogonalEdgeStyle;rounded=0;orthogonalLoop=1;jettySize=auto;html=1;entryX=0.5;entryY=0;entryDx=0;entryDy=0;" edge="1" parent="1" source="D9keEGk7cFVkovoU4lrc-10" target="D9keEGk7cFVkovoU4lrc-17">
          <mxGeometry relative="1" as="geometry">
            <Array as="points">
              <mxPoint x="410" y="690" />
              <mxPoint x="760" y="690" />
            </Array>
          </mxGeometry>
        </mxCell>
        <mxCell id="D9keEGk7cFVkovoU4lrc-10" value="&lt;b style=&quot;font-size: 14px;&quot;&gt;Create&lt;/b&gt;&lt;div style=&quot;font-size: 14px;&quot;&gt;&lt;b style=&quot;background-color: initial; font-size: 14px;&quot;&gt;RunBaseMotor&lt;/b&gt;&lt;div style=&quot;font-size: 14px;&quot;&gt;&lt;div style=&quot;font-size: 14px;&quot;&gt;&lt;b style=&quot;font-size: 14px;&quot;&gt;semaphore&lt;/b&gt;&lt;/div&gt;&lt;/div&gt;&lt;/div&gt;" style="rounded=1;whiteSpace=wrap;html=1;absoluteArcSize=1;arcSize=14;strokeWidth=2;fontSize=14;" vertex="1" parent="1">
          <mxGeometry x="340" y="600" width="140" height="60" as="geometry" />
        </mxCell>
        <mxCell id="D9keEGk7cFVkovoU4lrc-12" value="" style="verticalLabelPosition=bottom;verticalAlign=top;html=1;shape=process;whiteSpace=wrap;rounded=1;size=0.14;arcSize=6;strokeWidth=2;fontSize=14;" vertex="1" parent="1">
          <mxGeometry x="140" y="720" width="120" height="60" as="geometry" />
        </mxCell>
        <mxCell id="D9keEGk7cFVkovoU4lrc-13" value="&lt;b&gt;Distance&lt;/b&gt;&lt;div&gt;&lt;b&gt;Sensor()&lt;/b&gt;&lt;/div&gt;" style="text;html=1;align=center;verticalAlign=middle;resizable=0;points=[];autosize=1;strokeColor=none;fillColor=none;fontSize=14;" vertex="1" parent="1">
          <mxGeometry x="160" y="725" width="80" height="50" as="geometry" />
        </mxCell>
        <mxCell id="D9keEGk7cFVkovoU4lrc-14" value="" style="verticalLabelPosition=bottom;verticalAlign=top;html=1;shape=process;whiteSpace=wrap;rounded=1;size=0.14;arcSize=6;strokeWidth=2;fontSize=14;" vertex="1" parent="1">
          <mxGeometry x="280" y="720" width="120" height="60" as="geometry" />
        </mxCell>
        <mxCell id="D9keEGk7cFVkovoU4lrc-15" value="" style="verticalLabelPosition=bottom;verticalAlign=top;html=1;shape=process;whiteSpace=wrap;rounded=1;size=0.14;arcSize=6;strokeWidth=2;fontSize=14;" vertex="1" parent="1">
          <mxGeometry x="420" y="720" width="120" height="60" as="geometry" />
        </mxCell>
        <mxCell id="D9keEGk7cFVkovoU4lrc-16" value="" style="verticalLabelPosition=bottom;verticalAlign=top;html=1;shape=process;whiteSpace=wrap;rounded=1;size=0.14;arcSize=6;strokeWidth=2;fontSize=14;" vertex="1" parent="1">
          <mxGeometry x="560" y="720" width="120" height="60" as="geometry" />
        </mxCell>
        <mxCell id="D9keEGk7cFVkovoU4lrc-17" value="" style="verticalLabelPosition=bottom;verticalAlign=top;html=1;shape=process;whiteSpace=wrap;rounded=1;size=0.14;arcSize=6;strokeWidth=2;fontSize=14;" vertex="1" parent="1">
          <mxGeometry x="700" y="720" width="120" height="60" as="geometry" />
        </mxCell>
        <mxCell id="D9keEGk7cFVkovoU4lrc-18" value="" style="verticalLabelPosition=bottom;verticalAlign=top;html=1;shape=process;whiteSpace=wrap;rounded=1;size=0.14;arcSize=6;strokeWidth=2;fontSize=14;" vertex="1" parent="1">
          <mxGeometry y="720" width="120" height="60" as="geometry" />
        </mxCell>
        <mxCell id="D9keEGk7cFVkovoU4lrc-19" value="&lt;b&gt;ESP-NOW()&lt;/b&gt;" style="text;html=1;align=center;verticalAlign=middle;resizable=0;points=[];autosize=1;strokeColor=none;fillColor=none;fontSize=14;" vertex="1" parent="1">
          <mxGeometry x="10" y="735" width="100" height="30" as="geometry" />
        </mxCell>
        <mxCell id="D9keEGk7cFVkovoU4lrc-20" value="&lt;b&gt;Base&lt;/b&gt;&lt;div&gt;&lt;b&gt;Servo()&lt;/b&gt;&lt;/div&gt;" style="text;html=1;align=center;verticalAlign=middle;resizable=0;points=[];autosize=1;strokeColor=none;fillColor=none;fontSize=14;" vertex="1" parent="1">
          <mxGeometry x="305" y="725" width="70" height="50" as="geometry" />
        </mxCell>
        <mxCell id="D9keEGk7cFVkovoU4lrc-21" value="&lt;b&gt;Elbow&lt;/b&gt;&lt;br&gt;&lt;div&gt;&lt;b&gt;Servo()&lt;/b&gt;&lt;/div&gt;" style="text;html=1;align=center;verticalAlign=middle;resizable=0;points=[];autosize=1;strokeColor=none;fillColor=none;fontSize=14;" vertex="1" parent="1">
          <mxGeometry x="445" y="725" width="70" height="50" as="geometry" />
        </mxCell>
        <mxCell id="D9keEGk7cFVkovoU4lrc-22" value="&lt;b&gt;Hook&lt;/b&gt;&lt;br&gt;&lt;div&gt;&lt;b&gt;Servo()&lt;/b&gt;&lt;/div&gt;" style="text;html=1;align=center;verticalAlign=middle;resizable=0;points=[];autosize=1;strokeColor=none;fillColor=none;fontSize=14;" vertex="1" parent="1">
          <mxGeometry x="585" y="725" width="70" height="50" as="geometry" />
        </mxCell>
        <mxCell id="D9keEGk7cFVkovoU4lrc-23" value="&lt;b style=&quot;background-color: initial;&quot;&gt;Gripper&lt;/b&gt;&lt;div&gt;&lt;b style=&quot;background-color: initial;&quot;&gt;Servo()&lt;/b&gt;&lt;/div&gt;" style="text;html=1;align=center;verticalAlign=middle;resizable=0;points=[];autosize=1;strokeColor=none;fillColor=none;fontSize=14;" vertex="1" parent="1">
          <mxGeometry x="725" y="725" width="70" height="50" as="geometry" />
        </mxCell>
      </root>
    </mxGraphModel>
  </diagram>
  <diagram id="pyftqW5s8fSpDRmZvtU1" name="ESP-NOW">
    <mxGraphModel dx="1235" dy="731" grid="1" gridSize="10" guides="1" tooltips="1" connect="1" arrows="1" fold="1" page="1" pageScale="1" pageWidth="827" pageHeight="1169" math="0" shadow="0">
      <root>
        <mxCell id="0" />
        <mxCell id="1" parent="0" />
        <mxCell id="8j7cAGJ4JP_G2FmbRpUq-2" value="" style="edgeStyle=orthogonalEdgeStyle;rounded=0;orthogonalLoop=1;jettySize=auto;html=1;fontStyle=1" edge="1" parent="1" source="OYlkJ668vdw9v9saOo_3-1" target="8j7cAGJ4JP_G2FmbRpUq-1">
          <mxGeometry relative="1" as="geometry" />
        </mxCell>
        <mxCell id="OYlkJ668vdw9v9saOo_3-1" value="&lt;span style=&quot;font-size: 14px;&quot;&gt;START&lt;/span&gt;" style="strokeWidth=2;html=1;shape=mxgraph.flowchart.terminator;whiteSpace=wrap;fontSize=14;fontStyle=1" vertex="1" parent="1">
          <mxGeometry x="360" y="300" width="100" height="60" as="geometry" />
        </mxCell>
        <mxCell id="JedfMRHn5WWlH_3nM1-L-1" value="" style="edgeStyle=orthogonalEdgeStyle;rounded=0;orthogonalLoop=1;jettySize=auto;html=1;" edge="1" parent="1" source="8j7cAGJ4JP_G2FmbRpUq-1" target="rOuWhAsZvQXmJAv6U7t8-1">
          <mxGeometry relative="1" as="geometry" />
        </mxCell>
        <mxCell id="8j7cAGJ4JP_G2FmbRpUq-1" value="Is incoming&lt;div style=&quot;font-size: 14px;&quot;&gt;data from&lt;/div&gt;&lt;div style=&quot;font-size: 14px;&quot;&gt;peer?&lt;/div&gt;" style="strokeWidth=2;html=1;shape=mxgraph.flowchart.decision;whiteSpace=wrap;fontSize=14;fontStyle=1" vertex="1" parent="1">
          <mxGeometry x="340" y="400" width="140" height="140" as="geometry" />
        </mxCell>
        <mxCell id="rOuWhAsZvQXmJAv6U7t8-1" value="Copy incoming&lt;div&gt;peer&amp;nbsp;&lt;span style=&quot;background-color: initial;&quot;&gt;data to&lt;/span&gt;&lt;div&gt;servo_data&amp;nbsp;&lt;span style=&quot;background-color: initial;&quot;&gt;struct&lt;/span&gt;&lt;/div&gt;&lt;/div&gt;" style="rounded=1;whiteSpace=wrap;html=1;absoluteArcSize=1;arcSize=14;strokeWidth=2;fontSize=14;fontStyle=1" vertex="1" parent="1">
          <mxGeometry x="340" y="580" width="140" height="60" as="geometry" />
        </mxCell>
        <mxCell id="JedfMRHn5WWlH_3nM1-L-2" style="edgeStyle=orthogonalEdgeStyle;rounded=0;orthogonalLoop=1;jettySize=auto;html=1;entryX=0.5;entryY=0;entryDx=0;entryDy=0;entryPerimeter=0;" edge="1" parent="1" source="rOuWhAsZvQXmJAv6U7t8-1" target="8j7cAGJ4JP_G2FmbRpUq-1">
          <mxGeometry relative="1" as="geometry">
            <Array as="points">
              <mxPoint x="410" y="670" />
              <mxPoint x="310" y="670" />
              <mxPoint x="310" y="380" />
              <mxPoint x="410" y="380" />
            </Array>
          </mxGeometry>
        </mxCell>
        <mxCell id="JedfMRHn5WWlH_3nM1-L-3" value="Yes" style="text;html=1;align=center;verticalAlign=middle;resizable=0;points=[];autosize=1;strokeColor=none;fillColor=none;fontSize=14;fontStyle=1" vertex="1" parent="1">
          <mxGeometry x="400" y="540" width="50" height="30" as="geometry" />
        </mxCell>
        <mxCell id="JedfMRHn5WWlH_3nM1-L-5" value="No" style="text;html=1;align=center;verticalAlign=middle;resizable=0;points=[];autosize=1;strokeColor=none;fillColor=none;fontSize=14;fontStyle=1" vertex="1" parent="1">
          <mxGeometry x="470" y="440" width="40" height="30" as="geometry" />
        </mxCell>
        <mxCell id="JedfMRHn5WWlH_3nM1-L-6" style="edgeStyle=orthogonalEdgeStyle;rounded=0;orthogonalLoop=1;jettySize=auto;html=1;entryX=0.5;entryY=0;entryDx=0;entryDy=0;entryPerimeter=0;" edge="1" parent="1" source="8j7cAGJ4JP_G2FmbRpUq-1" target="8j7cAGJ4JP_G2FmbRpUq-1">
          <mxGeometry relative="1" as="geometry">
            <Array as="points">
              <mxPoint x="510" y="470" />
              <mxPoint x="510" y="670" />
              <mxPoint x="310" y="670" />
              <mxPoint x="310" y="380" />
              <mxPoint x="410" y="380" />
            </Array>
          </mxGeometry>
        </mxCell>
        <mxCell id="MlyzCUx2rXP4WXw0xUi5-1" value="&lt;span style=&quot;font-size: 14px;&quot;&gt;END&lt;/span&gt;" style="strokeWidth=2;html=1;shape=mxgraph.flowchart.terminator;whiteSpace=wrap;fontSize=14;fontStyle=1" vertex="1" parent="1">
          <mxGeometry x="360" y="690" width="100" height="60" as="geometry" />
        </mxCell>
        <mxCell id="MlyzCUx2rXP4WXw0xUi5-2" style="edgeStyle=orthogonalEdgeStyle;rounded=0;orthogonalLoop=1;jettySize=auto;html=1;entryX=0.5;entryY=0;entryDx=0;entryDy=0;entryPerimeter=0;" edge="1" parent="1" source="rOuWhAsZvQXmJAv6U7t8-1" target="MlyzCUx2rXP4WXw0xUi5-1">
          <mxGeometry relative="1" as="geometry" />
        </mxCell>
      </root>
    </mxGraphModel>
  </diagram>
  <diagram id="StxFhEVG1Lx6bNdim7Sl" name="DistanceSensor()">
    <mxGraphModel dx="1500" dy="887" grid="1" gridSize="10" guides="1" tooltips="1" connect="1" arrows="1" fold="1" page="1" pageScale="1" pageWidth="827" pageHeight="1169" math="0" shadow="0">
      <root>
        <mxCell id="0" />
        <mxCell id="1" parent="0" />
        <mxCell id="5V0KpU31cU2A9v4-Y0tW-3" value="" style="edgeStyle=orthogonalEdgeStyle;rounded=0;orthogonalLoop=1;jettySize=auto;html=1;fontSize=14;" edge="1" parent="1" source="CI8wZpLLGGy0GNz9B1VL-1" target="5V0KpU31cU2A9v4-Y0tW-2">
          <mxGeometry relative="1" as="geometry" />
        </mxCell>
        <mxCell id="CI8wZpLLGGy0GNz9B1VL-1" value="&lt;span style=&quot;font-size: 14px;&quot;&gt;START&lt;/span&gt;" style="strokeWidth=2;html=1;shape=mxgraph.flowchart.terminator;whiteSpace=wrap;fontSize=14;fontStyle=1" vertex="1" parent="1">
          <mxGeometry x="360" y="300" width="100" height="60" as="geometry" />
        </mxCell>
        <mxCell id="5V0KpU31cU2A9v4-Y0tW-5" value="" style="edgeStyle=orthogonalEdgeStyle;rounded=0;orthogonalLoop=1;jettySize=auto;html=1;fontSize=14;" edge="1" parent="1" source="5V0KpU31cU2A9v4-Y0tW-2" target="5V0KpU31cU2A9v4-Y0tW-4">
          <mxGeometry relative="1" as="geometry" />
        </mxCell>
        <mxCell id="5V0KpU31cU2A9v4-Y0tW-2" value="Read ultrasonic&lt;div style=&quot;font-size: 14px;&quot;&gt;sensor data&lt;/div&gt;" style="shape=parallelogram;html=1;strokeWidth=2;perimeter=parallelogramPerimeter;whiteSpace=wrap;rounded=1;arcSize=12;size=0.23;fontSize=14;fontStyle=1" vertex="1" parent="1">
          <mxGeometry x="332" y="400" width="156" height="70" as="geometry" />
        </mxCell>
        <mxCell id="5V0KpU31cU2A9v4-Y0tW-7" value="" style="edgeStyle=orthogonalEdgeStyle;rounded=0;orthogonalLoop=1;jettySize=auto;html=1;fontSize=14;" edge="1" parent="1" source="5V0KpU31cU2A9v4-Y0tW-4" target="5V0KpU31cU2A9v4-Y0tW-6">
          <mxGeometry relative="1" as="geometry" />
        </mxCell>
        <mxCell id="5V0KpU31cU2A9v4-Y0tW-4" value="Assign&lt;div style=&quot;font-size: 14px;&quot;&gt;distance&amp;nbsp;&lt;span style=&quot;background-color: initial; font-size: 14px;&quot;&gt;data to&lt;/span&gt;&lt;div style=&quot;font-size: 14px;&quot;&gt;actuator_data&lt;/div&gt;&lt;/div&gt;&lt;div style=&quot;font-size: 14px;&quot;&gt;struct&lt;/div&gt;" style="shape=parallelogram;html=1;strokeWidth=2;perimeter=parallelogramPerimeter;whiteSpace=wrap;rounded=1;arcSize=12;size=0.23;fontSize=14;fontStyle=1" vertex="1" parent="1">
          <mxGeometry x="332" y="514.5" width="156" height="75.5" as="geometry" />
        </mxCell>
        <mxCell id="5V0KpU31cU2A9v4-Y0tW-9" value="" style="edgeStyle=orthogonalEdgeStyle;rounded=0;orthogonalLoop=1;jettySize=auto;html=1;" edge="1" parent="1" source="5V0KpU31cU2A9v4-Y0tW-6" target="5V0KpU31cU2A9v4-Y0tW-8">
          <mxGeometry relative="1" as="geometry" />
        </mxCell>
        <mxCell id="U6btFtRYRQWYnlTOmBDz-2" style="edgeStyle=orthogonalEdgeStyle;rounded=0;orthogonalLoop=1;jettySize=auto;html=1;" edge="1" parent="1" source="5V0KpU31cU2A9v4-Y0tW-6" target="5V0KpU31cU2A9v4-Y0tW-10">
          <mxGeometry relative="1" as="geometry">
            <Array as="points">
              <mxPoint x="490" y="680" />
              <mxPoint x="490" y="850" />
              <mxPoint x="410" y="850" />
            </Array>
          </mxGeometry>
        </mxCell>
        <mxCell id="5V0KpU31cU2A9v4-Y0tW-6" value="Is&lt;div&gt;distance&lt;/div&gt;&lt;div&gt;&amp;gt;=5?&lt;/div&gt;" style="strokeWidth=2;html=1;shape=mxgraph.flowchart.decision;whiteSpace=wrap;fontSize=14;fontStyle=1" vertex="1" parent="1">
          <mxGeometry x="360" y="630" width="100" height="100" as="geometry" />
        </mxCell>
        <mxCell id="5V0KpU31cU2A9v4-Y0tW-11" value="" style="edgeStyle=orthogonalEdgeStyle;rounded=0;orthogonalLoop=1;jettySize=auto;html=1;" edge="1" parent="1" source="5V0KpU31cU2A9v4-Y0tW-8" target="5V0KpU31cU2A9v4-Y0tW-10">
          <mxGeometry relative="1" as="geometry" />
        </mxCell>
        <mxCell id="5V0KpU31cU2A9v4-Y0tW-8" value="Give RunBaseMotor&lt;div style=&quot;font-size: 14px;&quot;&gt;semaphore&lt;/div&gt;" style="rounded=1;whiteSpace=wrap;html=1;absoluteArcSize=1;arcSize=14;strokeWidth=2;fontSize=14;fontStyle=1" vertex="1" parent="1">
          <mxGeometry x="355" y="770" width="110" height="60" as="geometry" />
        </mxCell>
        <mxCell id="0oqXLfnbfdzYKCjp8ex7-2" value="" style="edgeStyle=orthogonalEdgeStyle;rounded=0;orthogonalLoop=1;jettySize=auto;html=1;" edge="1" parent="1" source="5V0KpU31cU2A9v4-Y0tW-10" target="0oqXLfnbfdzYKCjp8ex7-1">
          <mxGeometry relative="1" as="geometry" />
        </mxCell>
        <mxCell id="5V0KpU31cU2A9v4-Y0tW-10" value="Send actuator_data&lt;div&gt;data struct to peer&lt;/div&gt;" style="rounded=1;whiteSpace=wrap;html=1;absoluteArcSize=1;arcSize=14;strokeWidth=2;fontSize=14;fontStyle=1" vertex="1" parent="1">
          <mxGeometry x="340" y="870" width="140" height="60" as="geometry" />
        </mxCell>
        <mxCell id="U6btFtRYRQWYnlTOmBDz-1" value="Yes" style="text;html=1;align=center;verticalAlign=middle;resizable=0;points=[];autosize=1;strokeColor=none;fillColor=none;fontSize=14;fontStyle=1" vertex="1" parent="1">
          <mxGeometry x="400" y="730" width="50" height="30" as="geometry" />
        </mxCell>
        <mxCell id="U6btFtRYRQWYnlTOmBDz-3" value="No" style="text;html=1;align=center;verticalAlign=middle;resizable=0;points=[];autosize=1;strokeColor=none;fillColor=none;fontSize=14;fontStyle=1" vertex="1" parent="1">
          <mxGeometry x="450" y="650" width="40" height="30" as="geometry" />
        </mxCell>
        <mxCell id="OJE0rd-1i_CfzkKCI-NE-2" value="&lt;span style=&quot;font-size: 14px;&quot;&gt;END&lt;/span&gt;" style="strokeWidth=2;html=1;shape=mxgraph.flowchart.terminator;whiteSpace=wrap;fontSize=14;fontStyle=1" vertex="1" parent="1">
          <mxGeometry x="360" y="1060" width="100" height="60" as="geometry" />
        </mxCell>
        <mxCell id="0oqXLfnbfdzYKCjp8ex7-3" style="edgeStyle=orthogonalEdgeStyle;rounded=0;orthogonalLoop=1;jettySize=auto;html=1;entryX=0.5;entryY=0;entryDx=0;entryDy=0;" edge="1" parent="1" source="0oqXLfnbfdzYKCjp8ex7-1" target="5V0KpU31cU2A9v4-Y0tW-2">
          <mxGeometry relative="1" as="geometry">
            <Array as="points">
              <mxPoint x="410" y="1040" />
              <mxPoint x="310" y="1040" />
              <mxPoint x="310" y="380" />
              <mxPoint x="410" y="380" />
            </Array>
          </mxGeometry>
        </mxCell>
        <mxCell id="0oqXLfnbfdzYKCjp8ex7-1" value="vTask delay&lt;div&gt;100 ms&lt;/div&gt;" style="rounded=1;whiteSpace=wrap;html=1;absoluteArcSize=1;arcSize=14;strokeWidth=2;fontSize=14;fontStyle=1" vertex="1" parent="1">
          <mxGeometry x="357.5" y="970" width="105" height="50" as="geometry" />
        </mxCell>
        <mxCell id="0oqXLfnbfdzYKCjp8ex7-4" style="edgeStyle=orthogonalEdgeStyle;rounded=0;orthogonalLoop=1;jettySize=auto;html=1;entryX=0.5;entryY=0;entryDx=0;entryDy=0;entryPerimeter=0;" edge="1" parent="1" source="0oqXLfnbfdzYKCjp8ex7-1" target="OJE0rd-1i_CfzkKCI-NE-2">
          <mxGeometry relative="1" as="geometry" />
        </mxCell>
      </root>
    </mxGraphModel>
  </diagram>
  <diagram id="4fvNV4gAfndPWEFbVHIk" name="BaseServo()">
    <mxGraphModel dx="875" dy="518" grid="1" gridSize="10" guides="1" tooltips="1" connect="1" arrows="1" fold="1" page="1" pageScale="1" pageWidth="827" pageHeight="1169" math="0" shadow="0">
      <root>
        <mxCell id="0" />
        <mxCell id="1" parent="0" />
        <mxCell id="b2iHJd4WAB6qMeRF8SQr-2" value="" style="edgeStyle=orthogonalEdgeStyle;rounded=0;orthogonalLoop=1;jettySize=auto;html=1;" edge="1" parent="1" source="MKgIpOId3XAI_poeY2sG-1" target="b2iHJd4WAB6qMeRF8SQr-1">
          <mxGeometry relative="1" as="geometry" />
        </mxCell>
        <mxCell id="MKgIpOId3XAI_poeY2sG-1" value="&lt;span style=&quot;font-size: 14px;&quot;&gt;START&lt;/span&gt;" style="strokeWidth=2;html=1;shape=mxgraph.flowchart.terminator;whiteSpace=wrap;fontSize=14;fontStyle=1" vertex="1" parent="1">
          <mxGeometry x="360" y="300" width="100" height="60" as="geometry" />
        </mxCell>
        <mxCell id="Np4BSXZQGBNXwza5c6hX-2" value="" style="edgeStyle=orthogonalEdgeStyle;rounded=0;orthogonalLoop=1;jettySize=auto;html=1;" edge="1" parent="1" source="b2iHJd4WAB6qMeRF8SQr-1" target="Np4BSXZQGBNXwza5c6hX-1">
          <mxGeometry relative="1" as="geometry" />
        </mxCell>
        <mxCell id="b2iHJd4WAB6qMeRF8SQr-1" value="&lt;font style=&quot;font-size: 14px;&quot;&gt;Is&lt;/font&gt;&lt;div style=&quot;&quot;&gt;&lt;font style=&quot;font-size: 14px;&quot;&gt;RunBaseMotor&lt;/font&gt;&lt;/div&gt;&lt;div style=&quot;&quot;&gt;&lt;font style=&quot;font-size: 14px;&quot;&gt;semaphore&lt;/font&gt;&lt;/div&gt;&lt;div style=&quot;&quot;&gt;&lt;font style=&quot;font-size: 14px;&quot;&gt;available?&lt;/font&gt;&lt;/div&gt;" style="strokeWidth=2;html=1;shape=mxgraph.flowchart.decision;whiteSpace=wrap;fontSize=14;fontStyle=1" vertex="1" parent="1">
          <mxGeometry x="340" y="400" width="140" height="140" as="geometry" />
        </mxCell>
        <mxCell id="wpDsllR-ZpQIFYUx-I7i-2" value="" style="edgeStyle=orthogonalEdgeStyle;rounded=0;orthogonalLoop=1;jettySize=auto;html=1;" edge="1" parent="1" source="Np4BSXZQGBNXwza5c6hX-1" target="wpDsllR-ZpQIFYUx-I7i-1">
          <mxGeometry relative="1" as="geometry" />
        </mxCell>
        <mxCell id="Np4BSXZQGBNXwza5c6hX-1" value="Write servo with&lt;div&gt;base variable value from servo_data struct&lt;/div&gt;" style="rounded=1;whiteSpace=wrap;html=1;absoluteArcSize=1;arcSize=14;strokeWidth=2;fontSize=14;fontStyle=1" vertex="1" parent="1">
          <mxGeometry x="320" y="580" width="180" height="60" as="geometry" />
        </mxCell>
        <mxCell id="B06-PBBeHGta0nCqZB6C-1" value="Yes" style="text;html=1;align=center;verticalAlign=middle;resizable=0;points=[];autosize=1;strokeColor=none;fillColor=none;fontSize=14;fontStyle=1" vertex="1" parent="1">
          <mxGeometry x="400" y="540" width="50" height="30" as="geometry" />
        </mxCell>
        <mxCell id="wpDsllR-ZpQIFYUx-I7i-1" value="vTask delay&lt;div&gt;10 ms&lt;/div&gt;" style="rounded=1;whiteSpace=wrap;html=1;absoluteArcSize=1;arcSize=14;strokeWidth=2;fontSize=14;fontStyle=1" vertex="1" parent="1">
          <mxGeometry x="357.5" y="680" width="105" height="50" as="geometry" />
        </mxCell>
        <mxCell id="wpDsllR-ZpQIFYUx-I7i-4" style="edgeStyle=orthogonalEdgeStyle;rounded=0;orthogonalLoop=1;jettySize=auto;html=1;entryX=0.5;entryY=0;entryDx=0;entryDy=0;entryPerimeter=0;" edge="1" parent="1" source="wpDsllR-ZpQIFYUx-I7i-1" target="b2iHJd4WAB6qMeRF8SQr-1">
          <mxGeometry relative="1" as="geometry">
            <Array as="points">
              <mxPoint x="410" y="750" />
              <mxPoint x="290" y="750" />
              <mxPoint x="290" y="380" />
              <mxPoint x="410" y="380" />
            </Array>
          </mxGeometry>
        </mxCell>
        <mxCell id="wpDsllR-ZpQIFYUx-I7i-5" value="END" style="strokeWidth=2;html=1;shape=mxgraph.flowchart.terminator;whiteSpace=wrap;fontSize=14;fontStyle=1" vertex="1" parent="1">
          <mxGeometry x="360" y="770" width="100" height="60" as="geometry" />
        </mxCell>
        <mxCell id="wpDsllR-ZpQIFYUx-I7i-6" style="edgeStyle=orthogonalEdgeStyle;rounded=0;orthogonalLoop=1;jettySize=auto;html=1;entryX=0.5;entryY=0;entryDx=0;entryDy=0;entryPerimeter=0;" edge="1" parent="1" source="wpDsllR-ZpQIFYUx-I7i-1" target="wpDsllR-ZpQIFYUx-I7i-5">
          <mxGeometry relative="1" as="geometry" />
        </mxCell>
        <mxCell id="WVpxiC63PEE95cElh-CU-1" value="No" style="text;html=1;align=center;verticalAlign=middle;resizable=0;points=[];autosize=1;strokeColor=none;fillColor=none;fontSize=14;fontStyle=1" vertex="1" parent="1">
          <mxGeometry x="470" y="440" width="40" height="30" as="geometry" />
        </mxCell>
        <mxCell id="p9_lAjflAkXMwmxrp2Tw-1" style="edgeStyle=orthogonalEdgeStyle;rounded=0;orthogonalLoop=1;jettySize=auto;html=1;entryX=0.5;entryY=0;entryDx=0;entryDy=0;entryPerimeter=0;" edge="1" parent="1" source="b2iHJd4WAB6qMeRF8SQr-1" target="b2iHJd4WAB6qMeRF8SQr-1">
          <mxGeometry relative="1" as="geometry">
            <Array as="points">
              <mxPoint x="520" y="470" />
              <mxPoint x="520" y="750" />
              <mxPoint x="290" y="750" />
              <mxPoint x="290" y="380" />
              <mxPoint x="410" y="380" />
            </Array>
          </mxGeometry>
        </mxCell>
      </root>
    </mxGraphModel>
  </diagram>
</mxfile>
